<mxfile host="app.diagrams.net" modified="2021-08-27T15:27:31.955Z" agent="5.0 (Windows NT 10.0; Win64; x64) AppleWebKit/537.36 (KHTML, like Gecko) Chrome/92.0.4515.159 Safari/537.36" etag="u8vQShpQTu6rzXT4MLty" version="15.0.2" type="github">
  <diagram id="dZUIndjdPK84sNnJ9CHo" name="Page-1">
    <mxGraphModel dx="1490" dy="556" grid="1" gridSize="10" guides="1" tooltips="1" connect="1" arrows="1" fold="1" page="1" pageScale="1" pageWidth="827" pageHeight="1169" math="0" shadow="0">
      <root>
        <mxCell id="0" />
        <mxCell id="1" parent="0" />
        <mxCell id="Z1GRAb_l_Lzw0T1dBopZ-44" value="" style="rounded=0;whiteSpace=wrap;html=1;strokeColor=#000000;fillColor=#CCCCCC;" vertex="1" parent="1">
          <mxGeometry x="10" y="40" width="720" height="40" as="geometry" />
        </mxCell>
        <mxCell id="Z1GRAb_l_Lzw0T1dBopZ-42" value="" style="whiteSpace=wrap;html=1;aspect=fixed;strokeColor=#d79b00;fillColor=#ffe6cc;" vertex="1" parent="1">
          <mxGeometry x="10" y="80" width="720" height="720" as="geometry" />
        </mxCell>
        <mxCell id="Z1GRAb_l_Lzw0T1dBopZ-1" value="&lt;font style=&quot;font-size: 14px&quot;&gt;&lt;b&gt;USER&lt;/b&gt;&lt;/font&gt;" style="text;html=1;align=center;verticalAlign=middle;resizable=0;points=[];autosize=1;strokeColor=none;" vertex="1" parent="1">
          <mxGeometry x="255" y="50" width="50" height="20" as="geometry" />
        </mxCell>
        <mxCell id="Z1GRAb_l_Lzw0T1dBopZ-2" value="&lt;font style=&quot;font-size: 14px&quot;&gt;&lt;b&gt;SYSTEM&lt;/b&gt;&lt;/font&gt;" style="text;html=1;align=center;verticalAlign=middle;resizable=0;points=[];autosize=1;strokeColor=none;" vertex="1" parent="1">
          <mxGeometry x="610" y="50" width="70" height="20" as="geometry" />
        </mxCell>
        <mxCell id="Z1GRAb_l_Lzw0T1dBopZ-3" value="" style="endArrow=classic;html=1;" edge="1" parent="1">
          <mxGeometry width="50" height="50" relative="1" as="geometry">
            <mxPoint x="280" y="80" as="sourcePoint" />
            <mxPoint x="280" y="100" as="targetPoint" />
          </mxGeometry>
        </mxCell>
        <mxCell id="Z1GRAb_l_Lzw0T1dBopZ-4" value="" style="shape=line;html=1;strokeWidth=6;" vertex="1" parent="1">
          <mxGeometry x="80" y="100" width="440" height="10" as="geometry" />
        </mxCell>
        <mxCell id="Z1GRAb_l_Lzw0T1dBopZ-6" value="" style="endArrow=classic;html=1;" edge="1" parent="1">
          <mxGeometry width="50" height="50" relative="1" as="geometry">
            <mxPoint x="85" y="104" as="sourcePoint" />
            <mxPoint x="85" y="124" as="targetPoint" />
          </mxGeometry>
        </mxCell>
        <mxCell id="Z1GRAb_l_Lzw0T1dBopZ-7" value="See Option Schedule" style="ellipse;whiteSpace=wrap;html=1;strokeColor=#000000;" vertex="1" parent="1">
          <mxGeometry x="45" y="123" width="80" height="40" as="geometry" />
        </mxCell>
        <mxCell id="Z1GRAb_l_Lzw0T1dBopZ-8" value="" style="endArrow=classic;html=1;" edge="1" parent="1">
          <mxGeometry width="50" height="50" relative="1" as="geometry">
            <mxPoint x="84.5" y="163" as="sourcePoint" />
            <mxPoint x="84.5" y="183" as="targetPoint" />
          </mxGeometry>
        </mxCell>
        <mxCell id="Z1GRAb_l_Lzw0T1dBopZ-9" value="Click on That" style="ellipse;whiteSpace=wrap;html=1;strokeColor=#000000;" vertex="1" parent="1">
          <mxGeometry x="45" y="180" width="80" height="40" as="geometry" />
        </mxCell>
        <mxCell id="Z1GRAb_l_Lzw0T1dBopZ-10" value="" style="endArrow=classic;html=1;" edge="1" parent="1">
          <mxGeometry width="50" height="50" relative="1" as="geometry">
            <mxPoint x="84.5" y="220" as="sourcePoint" />
            <mxPoint x="84.5" y="240" as="targetPoint" />
          </mxGeometry>
        </mxCell>
        <mxCell id="Z1GRAb_l_Lzw0T1dBopZ-11" value="" style="shape=line;html=1;strokeWidth=6;" vertex="1" parent="1">
          <mxGeometry x="40" y="240" width="200" height="10" as="geometry" />
        </mxCell>
        <mxCell id="Z1GRAb_l_Lzw0T1dBopZ-12" value="" style="endArrow=classic;html=1;" edge="1" parent="1">
          <mxGeometry width="50" height="50" relative="1" as="geometry">
            <mxPoint x="43" y="246" as="sourcePoint" />
            <mxPoint x="43" y="266" as="targetPoint" />
          </mxGeometry>
        </mxCell>
        <mxCell id="Z1GRAb_l_Lzw0T1dBopZ-13" value="Date" style="ellipse;whiteSpace=wrap;html=1;strokeColor=#000000;" vertex="1" parent="1">
          <mxGeometry x="19" y="264" width="50" height="30" as="geometry" />
        </mxCell>
        <mxCell id="Z1GRAb_l_Lzw0T1dBopZ-14" value="" style="endArrow=classic;html=1;" edge="1" parent="1">
          <mxGeometry width="50" height="50" relative="1" as="geometry">
            <mxPoint x="100" y="244" as="sourcePoint" />
            <mxPoint x="100" y="264" as="targetPoint" />
          </mxGeometry>
        </mxCell>
        <mxCell id="Z1GRAb_l_Lzw0T1dBopZ-15" value="Time" style="ellipse;whiteSpace=wrap;html=1;strokeColor=#000000;" vertex="1" parent="1">
          <mxGeometry x="73" y="264" width="50" height="30" as="geometry" />
        </mxCell>
        <mxCell id="Z1GRAb_l_Lzw0T1dBopZ-16" value="" style="endArrow=classic;html=1;" edge="1" parent="1">
          <mxGeometry width="50" height="50" relative="1" as="geometry">
            <mxPoint x="156" y="246" as="sourcePoint" />
            <mxPoint x="156" y="266" as="targetPoint" />
          </mxGeometry>
        </mxCell>
        <mxCell id="Z1GRAb_l_Lzw0T1dBopZ-17" value="Location" style="ellipse;whiteSpace=wrap;html=1;strokeColor=#000000;" vertex="1" parent="1">
          <mxGeometry x="129" y="267" width="60" height="30" as="geometry" />
        </mxCell>
        <mxCell id="Z1GRAb_l_Lzw0T1dBopZ-18" value="" style="endArrow=classic;html=1;" edge="1" parent="1">
          <mxGeometry width="50" height="50" relative="1" as="geometry">
            <mxPoint x="236" y="244" as="sourcePoint" />
            <mxPoint x="236" y="264" as="targetPoint" />
          </mxGeometry>
        </mxCell>
        <mxCell id="Z1GRAb_l_Lzw0T1dBopZ-19" value="Transport No" style="ellipse;whiteSpace=wrap;html=1;strokeColor=#000000;" vertex="1" parent="1">
          <mxGeometry x="200" y="264" width="80" height="30" as="geometry" />
        </mxCell>
        <mxCell id="Z1GRAb_l_Lzw0T1dBopZ-20" value="" style="endArrow=classic;html=1;" edge="1" parent="1">
          <mxGeometry width="50" height="50" relative="1" as="geometry">
            <mxPoint x="44" y="294" as="sourcePoint" />
            <mxPoint x="44" y="314" as="targetPoint" />
          </mxGeometry>
        </mxCell>
        <mxCell id="Z1GRAb_l_Lzw0T1dBopZ-21" value="" style="endArrow=classic;html=1;" edge="1" parent="1">
          <mxGeometry width="50" height="50" relative="1" as="geometry">
            <mxPoint x="97.5" y="294" as="sourcePoint" />
            <mxPoint x="97.5" y="314" as="targetPoint" />
          </mxGeometry>
        </mxCell>
        <mxCell id="Z1GRAb_l_Lzw0T1dBopZ-22" value="" style="endArrow=classic;html=1;" edge="1" parent="1">
          <mxGeometry width="50" height="50" relative="1" as="geometry">
            <mxPoint x="158.5" y="297" as="sourcePoint" />
            <mxPoint x="158.5" y="317" as="targetPoint" />
          </mxGeometry>
        </mxCell>
        <mxCell id="Z1GRAb_l_Lzw0T1dBopZ-23" value="" style="endArrow=classic;html=1;" edge="1" parent="1">
          <mxGeometry width="50" height="50" relative="1" as="geometry">
            <mxPoint x="240" y="294" as="sourcePoint" />
            <mxPoint x="240" y="314" as="targetPoint" />
          </mxGeometry>
        </mxCell>
        <mxCell id="Z1GRAb_l_Lzw0T1dBopZ-24" value="" style="shape=line;html=1;strokeWidth=6;" vertex="1" parent="1">
          <mxGeometry x="40" y="310" width="210" height="10" as="geometry" />
        </mxCell>
        <mxCell id="Z1GRAb_l_Lzw0T1dBopZ-25" value="" style="endArrow=classic;html=1;entryX=0.115;entryY=0.48;entryDx=0;entryDy=0;entryPerimeter=0;" edge="1" parent="1" target="Z1GRAb_l_Lzw0T1dBopZ-38">
          <mxGeometry width="50" height="50" relative="1" as="geometry">
            <mxPoint x="139.5" y="315" as="sourcePoint" />
            <mxPoint x="139.5" y="335" as="targetPoint" />
          </mxGeometry>
        </mxCell>
        <mxCell id="Z1GRAb_l_Lzw0T1dBopZ-26" value="" style="endArrow=classic;html=1;" edge="1" parent="1">
          <mxGeometry width="50" height="50" relative="1" as="geometry">
            <mxPoint x="280" y="103" as="sourcePoint" />
            <mxPoint x="280" y="123" as="targetPoint" />
          </mxGeometry>
        </mxCell>
        <mxCell id="Z1GRAb_l_Lzw0T1dBopZ-27" value="See Give Review Option" style="ellipse;whiteSpace=wrap;html=1;strokeColor=#000000;" vertex="1" parent="1">
          <mxGeometry x="220" y="123" width="120" height="40" as="geometry" />
        </mxCell>
        <mxCell id="Z1GRAb_l_Lzw0T1dBopZ-28" value="" style="endArrow=classic;html=1;" edge="1" parent="1">
          <mxGeometry width="50" height="50" relative="1" as="geometry">
            <mxPoint x="280" y="163" as="sourcePoint" />
            <mxPoint x="280" y="183" as="targetPoint" />
          </mxGeometry>
        </mxCell>
        <mxCell id="Z1GRAb_l_Lzw0T1dBopZ-29" value="Click That &amp;amp; Write" style="ellipse;whiteSpace=wrap;html=1;strokeColor=#000000;" vertex="1" parent="1">
          <mxGeometry x="250" y="180" width="60" height="40" as="geometry" />
        </mxCell>
        <mxCell id="Z1GRAb_l_Lzw0T1dBopZ-30" value="" style="endArrow=classic;html=1;exitX=0.5;exitY=1;exitDx=0;exitDy=0;entryX=0.536;entryY=0.32;entryDx=0;entryDy=0;entryPerimeter=0;" edge="1" parent="1" source="Z1GRAb_l_Lzw0T1dBopZ-29" target="Z1GRAb_l_Lzw0T1dBopZ-38">
          <mxGeometry width="50" height="50" relative="1" as="geometry">
            <mxPoint x="270" y="180" as="sourcePoint" />
            <mxPoint x="320" y="330" as="targetPoint" />
            <Array as="points">
              <mxPoint x="280" y="240" />
              <mxPoint x="320" y="240" />
            </Array>
          </mxGeometry>
        </mxCell>
        <mxCell id="Z1GRAb_l_Lzw0T1dBopZ-31" value="" style="endArrow=classic;html=1;" edge="1" parent="1">
          <mxGeometry width="50" height="50" relative="1" as="geometry">
            <mxPoint x="440" y="105" as="sourcePoint" />
            <mxPoint x="440" y="125" as="targetPoint" />
          </mxGeometry>
        </mxCell>
        <mxCell id="Z1GRAb_l_Lzw0T1dBopZ-32" value="Request To See Account Info" style="ellipse;whiteSpace=wrap;html=1;strokeColor=#000000;" vertex="1" parent="1">
          <mxGeometry x="382" y="123" width="120" height="37" as="geometry" />
        </mxCell>
        <mxCell id="Z1GRAb_l_Lzw0T1dBopZ-33" value="" style="endArrow=classic;html=1;exitX=1;exitY=0.5;exitDx=0;exitDy=0;" edge="1" parent="1" source="Z1GRAb_l_Lzw0T1dBopZ-32">
          <mxGeometry width="50" height="50" relative="1" as="geometry">
            <mxPoint x="430" y="200" as="sourcePoint" />
            <mxPoint x="600" y="142" as="targetPoint" />
          </mxGeometry>
        </mxCell>
        <mxCell id="Z1GRAb_l_Lzw0T1dBopZ-34" value="Show Account Info" style="ellipse;whiteSpace=wrap;html=1;strokeColor=#000000;" vertex="1" parent="1">
          <mxGeometry x="600" y="123" width="120" height="37" as="geometry" />
        </mxCell>
        <mxCell id="Z1GRAb_l_Lzw0T1dBopZ-35" value="" style="endArrow=classic;html=1;exitX=0.5;exitY=1;exitDx=0;exitDy=0;" edge="1" parent="1" source="Z1GRAb_l_Lzw0T1dBopZ-34">
          <mxGeometry width="50" height="50" relative="1" as="geometry">
            <mxPoint x="270" y="190" as="sourcePoint" />
            <mxPoint x="500" y="200" as="targetPoint" />
            <Array as="points">
              <mxPoint x="660" y="200" />
            </Array>
          </mxGeometry>
        </mxCell>
        <mxCell id="Z1GRAb_l_Lzw0T1dBopZ-36" value="Can Update Account" style="ellipse;whiteSpace=wrap;html=1;strokeColor=#000000;" vertex="1" parent="1">
          <mxGeometry x="382" y="180" width="120" height="37" as="geometry" />
        </mxCell>
        <mxCell id="Z1GRAb_l_Lzw0T1dBopZ-37" value="" style="endArrow=classic;html=1;exitX=0.5;exitY=1;exitDx=0;exitDy=0;entryX=0.82;entryY=0.56;entryDx=0;entryDy=0;entryPerimeter=0;" edge="1" parent="1" source="Z1GRAb_l_Lzw0T1dBopZ-36" target="Z1GRAb_l_Lzw0T1dBopZ-38">
          <mxGeometry width="50" height="50" relative="1" as="geometry">
            <mxPoint x="270" y="300" as="sourcePoint" />
            <mxPoint x="442" y="330" as="targetPoint" />
          </mxGeometry>
        </mxCell>
        <mxCell id="Z1GRAb_l_Lzw0T1dBopZ-38" value="" style="shape=line;html=1;strokeWidth=6;" vertex="1" parent="1">
          <mxGeometry x="90" y="333" width="430" height="10" as="geometry" />
        </mxCell>
        <mxCell id="Z1GRAb_l_Lzw0T1dBopZ-39" value="" style="endArrow=none;html=1;" edge="1" parent="1">
          <mxGeometry width="50" height="50" relative="1" as="geometry">
            <mxPoint x="560" y="420" as="sourcePoint" />
            <mxPoint x="560" y="40" as="targetPoint" />
          </mxGeometry>
        </mxCell>
        <mxCell id="Z1GRAb_l_Lzw0T1dBopZ-40" value="" style="endArrow=classic;html=1;" edge="1" parent="1">
          <mxGeometry width="50" height="50" relative="1" as="geometry">
            <mxPoint x="294.5" y="339" as="sourcePoint" />
            <mxPoint x="294.5" y="359" as="targetPoint" />
          </mxGeometry>
        </mxCell>
        <mxCell id="Z1GRAb_l_Lzw0T1dBopZ-41" value="" style="ellipse;html=1;shape=endState;fillColor=#000000;strokeColor=#ff0000;" vertex="1" parent="1">
          <mxGeometry x="280" y="360" width="30" height="30" as="geometry" />
        </mxCell>
      </root>
    </mxGraphModel>
  </diagram>
</mxfile>
